<svg width="64" height="64" viewBox="0 0 64 64" fill="none" xmlns="http://www.w3.org/2000/svg" role="img" aria-label="Norn">
  <defs>
    <linearGradient id="norn-sky" x1="0" y1="0" x2="0" y2="64" gradientUnits="userSpaceOnUse">
      <stop offset="0" stop-color="#1b1840"/><stop offset="1" stop-color="#0a0a1f"/>
    </linearGradient>
    <radialGradient id="norn-glow" cx="0.5" cy="0.46" r="0.55">
      <stop offset="0" stop-color="#5b6cff" stop-opacity="0.35"/><stop offset="1" stop-color="#5b6cff" stop-opacity="0"/>
    </radialGradient>
  </defs>
  <rect width="64" height="64" rx="14" fill="url(#norn-sky)"/>
  <rect width="64" height="64" rx="14" fill="url(#norn-glow)"/>
  <g fill="none" stroke-width="3.4" stroke-linecap="round">
    <path d="M32.00 14 L34.48 15 L36.77 16 L38.69 17 L40.09 18 L40.86 19 L40.95 20 L40.34 21 L39.09 22 L37.29 23 L35.08 24 L32.63 25 L30.13 26 L27.77 27 L25.75 28 L24.21 29 L23.27 30 L23.01 31 L23.44 32 L24.54 33 L26.21 34 L28.34 35 L30.75 36 L33.25 37 L35.66 38 L37.79 39 L39.46 40 L40.56 41 L40.99 42 L40.73 43 L39.79 44 L38.25 45 L36.23 46 L33.87 47 L31.37 48 L28.92 49 L26.71 50" stroke="#8b5cf6"/>
    <path d="M39.79 14 L38.25 15 L36.23 16 L33.87 17 L31.37 18 L28.92 19 L26.71 20 L24.91 21 L23.66 22 L23.05 23 L23.14 24 L23.91 25 L25.31 26 L27.23 27 L29.52 28 L32.00 29 L34.48 30 L36.77 31 L38.69 32 L40.09 33 L40.86 34 L40.95 35 L40.34 36 L39.09 37 L37.29 38 L35.08 39 L32.63 40 L30.13 41 L27.77 42 L25.75 43 L24.21 44 L23.27 45 L23.01 46 L23.44 47 L24.54 48 L26.21 49 L28.34 50" stroke="#14b8a6"/>
    <path d="M24.21 14 L23.27 15 L23.01 16 L23.44 17 L24.54 18 L26.21 19 L28.34 20 L30.75 21 L33.25 22 L35.66 23 L37.79 24 L39.46 25 L40.56 26 L40.99 27 L40.73 28 L39.79 29 L38.25 30 L36.23 31 L33.87 32 L31.37 33 L28.92 34 L26.71 35 L24.91 36 L23.66 37 L23.05 38 L23.14 39 L23.91 40 L25.31 41 L27.23 42 L29.52 43 L32.00 44 L34.48 45 L36.77 46 L38.69 47 L40.09 48 L40.86 49 L40.95 50" stroke="#f59e0b"/>
  </g>
  <circle cx="32" cy="11" r="2.4" fill="#ffffff"/>
  <circle cx="32" cy="53" r="2.4" fill="#ffffff" opacity="0.9"/>
</svg>
