<svg width="64" height="64" viewBox="0 0 64 64" fill="none" xmlns="http://www.w3.org/2000/svg" role="img" aria-label="Total Perspective Vortex">
  <defs>
    <linearGradient id="tpv-sky" x1="0" y1="0" x2="0" y2="64" gradientUnits="userSpaceOnUse">
      <stop offset="0" stop-color="#241a4d"/><stop offset="1" stop-color="#080614"/>
    </linearGradient>
    <radialGradient id="tpv-core" cx="0.5" cy="0.5" r="0.5">
      <stop offset="0" stop-color="#ffffff"/><stop offset="0.4" stop-color="#c4b5fd"/><stop offset="1" stop-color="#6d28d9" stop-opacity="0"/>
    </radialGradient>
    <linearGradient id="tpv-arm" x1="8" y1="32" x2="56" y2="32" gradientUnits="userSpaceOnUse">
      <stop offset="0" stop-color="#22d3ee"/><stop offset="0.5" stop-color="#6366f1"/><stop offset="1" stop-color="#a855f7"/>
    </linearGradient>
  </defs>
  <rect width="64" height="64" rx="14" fill="url(#tpv-sky)"/>
  <!-- spiral arms -->
  <g fill="none" stroke-linecap="round">
    <path d="M34.60 32.00 L34.63 32.32 L34.63 32.64 L34.58 32.97 L34.50 33.30 L34.37 33.62 L34.20 33.93 L33.99 34.22 L33.75 34.50 L33.46 34.74 L33.15 34.95 L32.80 35.13 L32.43 35.27 L32.04 35.36 L31.63 35.41 L31.20 35.41 L30.78 35.35 L30.35 35.25 L29.94 35.09 L29.53 34.87 L29.15 34.61 L28.80 34.29 L28.48 33.93 L28.20 33.53 L27.96 33.08 L27.78 32.60 L27.65 32.09 L27.58 31.56 L27.58 31.02 L27.65 30.47 L27.78 29.92 L27.98 29.37 L28.25 28.85 L28.58 28.35 L28.99 27.89 L29.45 27.47 L29.97 27.10 L30.54 26.79 L31.16 26.55 L31.82 26.38 L32.50 26.28 L33.21 26.27 L33.92 26.35 L34.64 26.51 L35.34 26.76 L36.02 27.10 L36.67 27.53 L37.28 28.05 L37.83 28.64 L38.31 29.31 L38.72 30.04 L39.04 30.84 L39.27 31.69 L39.40 32.57 L39.43 33.48 L39.34 34.41 L39.14 35.33 L38.82 36.25 L38.39 37.13 L37.85 37.98 L37.19 38.77 L36.43 39.49 L35.57 40.12 L34.62 40.66 L33.60 41.09 L32.51 41.40 L31.37 41.58 L30.19 41.63 L28.99 41.53 L27.79 41.28 L26.60 40.89 L25.45 40.34 L24.35 39.64 L23.32 38.81 L22.38 37.83 L21.54 36.73 L20.83 35.51 L20.26 34.19 L19.84 32.79 L19.59 31.31 L19.52 29.79 L19.63 28.24 L19.93 26.68 L20.43 25.14 L21.12 23.64 L22.01 22.21 L23.07 20.86 L24.32 19.63 L25.73 18.54 L27.30 17.60 L29.00 16.85 L30.81 16.29 L32.71 15.94 L34.68 15.83 L36.69 15.95 L38.71 16.32 L40.71 16.94 L42.66 17.81 L44.53 18.94 L46.28 20.30 L47.89 21.90 L49.33 23.71 L50.56 25.72 L51.56 27.91 L52.31 30.24" stroke="url(#tpv-arm)" stroke-width="2.6" opacity="0.95"/>
    <path d="M29.40 32.00 L29.37 31.68 L29.37 31.36 L29.42 31.03 L29.50 30.70 L29.63 30.38 L29.80 30.07 L30.01 29.78 L30.25 29.50 L30.54 29.26 L30.85 29.05 L31.20 28.87 L31.57 28.73 L31.96 28.64 L32.37 28.59 L32.80 28.59 L33.22 28.65 L33.65 28.75 L34.06 28.91 L34.47 29.13 L34.85 29.39 L35.20 29.71 L35.52 30.07 L35.80 30.47 L36.04 30.92 L36.22 31.40 L36.35 31.91 L36.42 32.44 L36.42 32.98 L36.35 33.53 L36.22 34.08 L36.02 34.63 L35.75 35.15 L35.42 35.65 L35.01 36.11 L34.55 36.53 L34.03 36.90 L33.46 37.21 L32.84 37.45 L32.18 37.62 L31.50 37.72 L30.79 37.73 L30.08 37.65 L29.36 37.49 L28.66 37.24 L27.98 36.90 L27.33 36.47 L26.72 35.95 L26.17 35.36 L25.69 34.69 L25.28 33.96 L24.96 33.16 L24.73 32.31 L24.60 31.43 L24.57 30.52 L24.66 29.59 L24.86 28.67 L25.18 27.75 L25.61 26.87 L26.15 26.02 L26.81 25.23 L27.57 24.51 L28.43 23.88 L29.38 23.34 L30.40 22.91 L31.49 22.60 L32.63 22.42 L33.81 22.37 L35.01 22.47 L36.21 22.72 L37.40 23.11 L38.55 23.66 L39.65 24.36 L40.68 25.19 L41.62 26.17 L42.46 27.27 L43.17 28.49 L43.74 29.81 L44.16 31.21 L44.41 32.69 L44.48 34.21 L44.37 35.76 L44.07 37.32 L43.57 38.86 L42.88 40.36 L41.99 41.79 L40.93 43.14 L39.68 44.37 L38.27 45.46 L36.70 46.40 L35.00 47.15 L33.19 47.71 L31.29 48.06 L29.32 48.17 L27.31 48.05 L25.29 47.68 L23.29 47.06 L21.34 46.19 L19.47 45.06 L17.72 43.70 L16.11 42.10 L14.67 40.29 L13.44 38.28 L12.44 36.09 L11.69 33.76" stroke="url(#tpv-arm)" stroke-width="2.6" opacity="0.95"/>
  </g>
  <!-- glowing core -->
  <circle cx="32" cy="32" r="11" fill="url(#tpv-core)"/>
  <circle cx="32" cy="32" r="2.6" fill="#ffffff"/>
  <!-- "you are here": one warm dot at the edge of an arm -->
  <circle cx="52.68" cy="32.00" r="5.2" fill="#f59e0b" opacity="0.25"/>
  <circle cx="52.68" cy="32.00" r="2.7" fill="#fbbf24"/>
  <circle cx="52.68" cy="32.00" r="1.1" fill="#ffffff"/>
</svg>
